# xmcd
#
# Track frame offsets: 
#        150
#        9164
#        20953
#        30048
#        43035
#        52497
#        64359
#        72790
#        84050
#        92987
#        105471
#        118608
#        131221
#        143461
#
# Disc length: 2513 seconds
#
# Revision: 0
# Processed by: cddbd v1.5.2PL0 Copyright (c) Steve Scherf et al.
# Submitted via: ExactAudioCopy v1.0b2
#
DISCID=b809cf0e
DTITLE=hepcazz - Tales from the Hepcazz
DYEAR=2013
DGENRE=Boogie Woogie
TTITLE0=Monday Morning Quarterbacks
TTITLE1=A Farewell Letter
TTITLE2=Lucy
TTITLE3=All That Stuff
TTITLE4=A Tribute to Eddie
TTITLE5=Please Come Back
TTITLE6=All the Cats Go Crazy
TTITLE7=Cool Cruisin' Man
TTITLE8=Do Me No Wrong
TTITLE9=If You Could See Me
TTITLE10=Nightflyer
TTITLE11=Midnight Honey
TTITLE12=Questions of Love
TTITLE13=You're So Hot
EXTD=
EXTT0=
EXTT1=
EXTT2=
EXTT3=
EXTT4=
EXTT5=
EXTT6=
EXTT7=
EXTT8=
EXTT9=
EXTT10=
EXTT11=
EXTT12=
EXTT13=
PLAYORDER=
